<svg xmlns="http://www.w3.org/2000/svg" xmlns:xlink="http://www.w3.org/1999/xlink" x="0px" y="0px" viewBox="0 0 512 512" style="enable-background:new 0 0 512 512;" xml:space="preserve">
<g>
	<g>
		<g>
			<path d="M462.797,324.497l-112.93-32.265V187.733c0-18.825-15.309-34.133-34.133-34.133S281.6,168.909,281.6,187.733v145.084     l-4.386-8.218c-5.589-10.761-16.905-17.442-29.534-17.442c-6.084,0-12.058,1.596-17.28,4.617     c-15.582,8.994-20.992,28.314-13.116,45.304c1.621,4.429,40.388,108.928,83.883,152.422c1.596,1.604,3.763,2.5,6.033,2.5h136.533     c2.85,0,5.513-1.425,7.1-3.797C486.4,454.852,486.4,410.496,486.4,384v-25.6C486.4,335.377,471.245,326.246,462.797,324.497z      M469.333,384c0,23.927,0,63.565-30.225,110.933H310.81c-39.936-42.428-77.133-142.729-77.764-144.375     c-3.738-8.081-2.91-18.927,5.888-24.004c7.953-4.591,19.157-1.741,23.185,5.999l20.489,38.4c1.843,3.447,5.811,5.18,9.591,4.258     c3.806-0.947,6.468-4.361,6.468-8.277v-179.2c0-9.412,7.654-17.067,17.067-17.067s17.067,7.654,17.067,17.067v110.933     c0,3.806,2.526,7.159,6.195,8.201l27.938,7.987v7.543c0,4.71,3.814,8.533,8.533,8.533s8.533-3.823,8.533-8.533v-2.671     l17.067,4.881v7.125c0,4.71,3.814,8.533,8.533,8.533c4.719,0,8.533-3.823,8.533-8.533v-2.253l17.067,4.881v6.972     c0,4.71,3.814,8.533,8.533,8.533s8.533-3.823,8.533-8.533v-2.099l6.195,1.766c0.273,0.085,0.546,0.154,0.828,0.196     c0.102,0.017,10.044,1.98,10.044,17.203V384z"></path>
			<path d="M196.267,358.4H51.2c-4.71,0-8.533-3.831-8.533-8.533V25.6c0-4.702,3.823-8.533,8.533-8.533h324.267     c4.71,0,8.533,3.831,8.533,8.533v256c0,4.71,3.814,8.533,8.533,8.533c4.719,0,8.533-3.823,8.533-8.533v-256     c0-14.114-11.486-25.6-25.6-25.6H51.2C37.086,0,25.6,11.486,25.6,25.6v324.267c0,14.114,11.486,25.6,25.6,25.6h145.067     c4.719,0,8.533-3.823,8.533-8.533S200.986,358.4,196.267,358.4z"></path>
			<path d="M221.867,221.867c18.825,0,34.133-15.309,34.133-34.133S240.691,153.6,221.867,153.6     c-18.825,0-34.133,15.309-34.133,34.133S203.042,221.867,221.867,221.867z M221.867,170.667c9.412,0,17.067,7.654,17.067,17.067     s-7.654,17.067-17.067,17.067c-9.412,0-17.067-7.654-17.067-17.067S212.454,170.667,221.867,170.667z"></path>
			<path d="M281.6,85.333c0,18.825,15.309,34.133,34.133,34.133s34.133-15.309,34.133-34.133c0-18.825-15.309-34.133-34.133-34.133     S281.6,66.509,281.6,85.333z M332.8,85.333c0,9.412-7.654,17.067-17.067,17.067s-17.067-7.654-17.067-17.067     c0-9.412,7.654-17.067,17.067-17.067S332.8,75.921,332.8,85.333z"></path>
			<path d="M110.933,256C92.109,256,76.8,271.309,76.8,290.133s15.309,34.133,34.133,34.133c18.825,0,34.133-15.309,34.133-34.133     S129.758,256,110.933,256z M110.933,307.2c-9.412,0-17.067-7.654-17.067-17.067c0-9.412,7.654-17.067,17.067-17.067     c9.412,0,17.067,7.654,17.067,17.067C128,299.546,120.346,307.2,110.933,307.2z"></path>
			<path d="M247.467,85.333c0-18.825-15.309-34.133-34.133-34.133S179.2,66.509,179.2,85.333c0,18.825,15.309,34.133,34.133,34.133     S247.467,104.158,247.467,85.333z M196.267,85.333c0-9.412,7.654-17.067,17.067-17.067c9.412,0,17.067,7.654,17.067,17.067     c0,9.412-7.654,17.067-17.067,17.067C203.921,102.4,196.267,94.746,196.267,85.333z"></path>
			<path d="M110.933,153.6c-18.825,0-34.133,15.309-34.133,34.133s15.309,34.133,34.133,34.133     c18.825,0,34.133-15.309,34.133-34.133S129.758,153.6,110.933,153.6z M110.933,204.8c-9.412,0-17.067-7.654-17.067-17.067     s7.654-17.067,17.067-17.067c9.412,0,17.067,7.654,17.067,17.067S120.346,204.8,110.933,204.8z"></path>
			<path d="M110.933,51.2C92.109,51.2,76.8,66.509,76.8,85.333c0,18.825,15.309,34.133,34.133,34.133     c18.825,0,34.133-15.309,34.133-34.133C145.067,66.509,129.758,51.2,110.933,51.2z M110.933,102.4     c-9.412,0-17.067-7.654-17.067-17.067c0-9.412,7.654-17.067,17.067-17.067c9.412,0,17.067,7.654,17.067,17.067     C128,94.746,120.346,102.4,110.933,102.4z"></path>
			<path d="M204.8,290.133c0-9.412,7.654-17.067,17.067-17.067c8.226,0,15.275,5.854,16.777,13.918     c0.862,4.634,5.325,7.671,9.95,6.835c4.634-0.862,7.689-5.316,6.835-9.95C252.425,267.725,238.31,256,221.867,256     c-18.825,0-34.133,15.309-34.133,34.133c0,8.457,3.115,16.572,8.772,22.861c1.69,1.869,4.011,2.816,6.34,2.816     c2.048,0,4.087-0.725,5.709-2.193c3.516-3.157,3.789-8.55,0.64-12.049C206.362,298.428,204.8,294.366,204.8,290.133z"></path>
		</g>
	</g>
</g>
<g>
</g>
<g>
</g>
<g>
</g>
<g>
</g>
<g>
</g>
<g>
</g>
<g>
</g>
<g>
</g>
<g>
</g>
<g>
</g>
<g>
</g>
<g>
</g>
<g>
</g>
<g>
</g>
<g>
</g>
</svg>