<svg xmlns="http://www.w3.org/2000/svg" xmlns:xlink="http://www.w3.org/1999/xlink" id="Layer_1" x="0px" y="0px" viewBox="0 0 512 512" style="enable-background:new 0 0 512 512;" xml:space="preserve">
<g>
	<g>
		<g>
			<path d="M119.476,42.667c-42.351,0-76.8,34.458-76.8,76.8c0,4.71,3.814,8.533,8.533,8.533s8.533-3.823,8.533-8.533     c0-32.939,26.803-59.733,59.733-59.733c4.719,0,8.533-3.823,8.533-8.533S124.195,42.667,119.476,42.667z"></path>
			<path d="M119.476,17.067c4.719,0,8.533-3.823,8.533-8.533S124.195,0,119.476,0C53.599,0,0.01,53.589,0.01,119.467     c0,4.71,3.814,8.533,8.533,8.533s8.533-3.823,8.533-8.533C17.076,63.002,63.011,17.067,119.476,17.067z"></path>
			<path d="M215.929,272.708c2.261,0,4.429-0.896,6.033-2.492l48.265-48.273c3.337-3.337,3.337-8.738,0-12.066l-36.198-36.207     c-1.604-1.596-3.772-2.5-6.033-2.5c-2.27,0-4.437,0.905-6.033,2.5l-42.24,42.24l-6.033-6.033     c-9.975-9.984-9.975-26.231,0.009-36.207c4.821-4.838,11.238-7.492,18.074-7.492h0.017c4.702,0,8.533-3.823,8.533-8.533     c0-4.71-3.823-8.533-8.533-8.533h-0.017c-11.392,0-22.101,4.437-30.157,12.493c-16.631,16.631-16.631,43.699,0,60.339     l11.989,11.981c0.026,0.034,0.06,0.06,0.085,0.085c0.017,0.026,0.051,0.051,0.077,0.085l36.13,36.122     C211.491,271.812,213.659,272.708,215.929,272.708z M227.995,191.77l24.132,24.141l-36.198,36.198l-24.141-24.132L227.995,191.77     z"></path>
			<path d="M499.517,294.349L258.16,52.992c-8.055-8.055-18.773-12.493-30.174-12.493c-11.401,0-22.11,4.437-30.165,12.493     l-54.315,54.306l-6.033-6.033c-9.66-9.677-26.53-9.677-36.198-0.009c-4.83,4.838-7.501,11.273-7.501,18.108     s2.671,13.269,7.501,18.099l6.033,6.033L53.01,197.803c-8.055,8.064-12.501,18.773-12.501,30.174     c0,11.401,4.446,22.11,12.501,30.165l241.348,241.365c8.055,8.055,18.773,12.493,30.174,12.493     c11.401,0,22.11-4.437,30.165-12.493l144.819-144.819C516.148,338.057,516.148,310.98,499.517,294.349z M487.451,342.622     L342.632,487.441c-9.66,9.66-26.539,9.66-36.207,0L65.076,246.076c-4.83-4.83-7.501-11.264-7.501-18.099     s2.671-13.269,7.501-18.108l60.331-60.339c3.337-3.328,3.337-8.73,0-12.066l-12.066-12.066c-1.604-1.613-2.5-3.755-2.5-6.033     c0-2.278,0.887-4.42,2.5-6.033c1.621-1.613,3.763-2.5,6.033-2.5c2.278,0,4.42,0.887,6.033,2.5l12.066,12.066     c3.337,3.328,8.738,3.328,12.066,0l60.348-60.339c9.668-9.668,26.539-9.668,36.207,0l241.357,241.357     C497.426,316.399,497.426,332.638,487.451,342.622z"></path>
			<path d="M354.698,197.803c-3.328-3.328-8.73-3.328-12.066,0L197.821,342.622c-3.337,3.337-3.337,8.73,0,12.066     c1.664,1.664,3.849,2.5,6.033,2.5c2.185,0,4.361-0.836,6.033-2.5l144.811-144.819     C358.034,206.541,358.034,201.139,354.698,197.803z"></path>
			<path d="M366.764,306.415c-8.055-8.055-18.765-12.493-30.165-12.493s-22.101,4.437-30.165,12.493     c-8.055,8.064-12.501,18.773-12.501,30.174s4.446,22.11,12.501,30.165l11.955,11.955c0.034,0.043,0.068,0.077,0.111,0.12     c0.034,0.034,0.077,0.068,0.119,0.111l36.079,36.087c1.604,1.604,3.772,2.5,6.033,2.5c2.27,0,4.437-0.896,6.033-2.5     l48.282-48.273c1.596-1.596,2.5-3.772,2.5-6.033c0-2.261-0.905-4.437-2.5-6.033L366.764,306.415z M318.499,354.68     c-4.83-4.821-7.501-11.255-7.501-18.091s2.671-13.269,7.501-18.108c4.838-4.83,11.264-7.492,18.099-7.492     c6.844,0,13.269,2.662,18.099,7.492l6.033,6.042l-36.198,36.198L318.499,354.68z M360.731,396.928l-24.132-24.132l36.207-36.207     l24.141,24.132L360.731,396.928z"></path>
		</g>
	</g>
</g>
<g>
</g>
<g>
</g>
<g>
</g>
<g>
</g>
<g>
</g>
<g>
</g>
<g>
</g>
<g>
</g>
<g>
</g>
<g>
</g>
<g>
</g>
<g>
</g>
<g>
</g>
<g>
</g>
<g>
</g>
</svg>