<svg xmlns="http://www.w3.org/2000/svg" xmlns:xlink="http://www.w3.org/1999/xlink" x="0px" y="0px" viewBox="0 0 512 512" style="enable-background:new 0 0 512 512;" xml:space="preserve">
<g>
	<g>
		<g>
			<path d="M334.102,72.999c1.362,0.79,2.855,1.163,4.33,1.163c3.003,0,5.918-1.553,7.524-4.339l17.356-30.06     c2.404-4.148,0.981-9.459-3.176-11.854c-4.157-2.404-9.459-0.981-11.854,3.176l-17.356,30.06     C328.522,65.293,329.945,70.604,334.102,72.999z"></path>
			<path d="M78.813,107.312l30.06,17.356c1.362,0.79,2.855,1.163,4.33,1.163c3.003,0,5.918-1.553,7.524-4.339     c2.395-4.148,0.972-9.459-3.176-11.854l-30.06-17.356c-4.148-2.395-9.459-0.981-11.854,3.176     C73.233,99.606,74.665,104.917,78.813,107.312z"></path>
			<path d="M398.805,134.517c1.475,0,2.968-0.373,4.33-1.163l30.052-17.356c4.148-2.395,5.58-7.706,3.176-11.854     c-2.404-4.157-7.715-5.58-11.854-3.176l-30.052,17.356c-4.148,2.395-5.571,7.706-3.176,11.854     C392.886,132.964,395.802,134.517,398.805,134.517z"></path>
			<path d="M256,52.068c4.799,0,8.678-3.888,8.678-8.678V8.678C264.678,3.888,260.799,0,256,0s-8.678,3.888-8.678,8.678V43.39     C247.322,48.18,251.201,52.068,256,52.068z"></path>
			<path d="M166.044,61.136c1.605,2.786,4.521,4.339,7.524,4.339c1.475,0,2.968-0.373,4.33-1.154     c4.157-2.404,5.58-7.715,3.176-11.863l-17.356-30.052c-2.404-4.157-7.723-5.58-11.854-3.185     c-4.157,2.404-5.58,7.715-3.176,11.863L166.044,61.136z"></path>
			<path d="M247.322,260.339c0-28.715-23.352-52.068-52.068-52.068c-4.799,0-8.678,3.888-8.678,8.678v121.492     c0,4.79,3.879,8.678,8.678,8.678c28.715,0,52.068-23.352,52.068-52.068V260.339z M229.966,295.051     c0,16.141-11.073,29.748-26.034,33.618V226.721c14.961,3.87,26.034,17.477,26.034,33.618V295.051z"></path>
			<path d="M438.237,407.864H161.08c-4.79,0-8.678,3.888-8.678,8.678s3.888,8.678,8.678,8.678h277.157     c12.652,0,26.034,13.381,26.034,26.034v43.39H47.729v-43.39c0-12.652,13.381-26.034,26.034-26.034h52.068     c4.799,0,8.678-3.888,8.678-8.678V199.593c0-66.994,54.498-121.492,121.492-121.492s121.492,54.498,121.492,121.492v182.237     c0,4.79,3.879,8.678,8.678,8.678s8.678-3.888,8.678-8.678V199.593c0-76.557-62.29-138.847-138.847-138.847     s-138.847,62.29-138.847,138.847v208.271h-43.39c-22.302,0-43.39,21.087-43.39,43.39v52.068c0,4.79,3.879,8.678,8.678,8.678     h433.898c4.799,0,8.678-3.888,8.678-8.678v-52.068C481.627,428.952,460.54,407.864,438.237,407.864z"></path>
			<path d="M256,399.186c4.799,0,8.678-3.888,8.678-8.678v-52.068c0-4.79-3.879-8.678-8.678-8.678s-8.678,3.888-8.678,8.678v52.068     C247.322,395.299,251.201,399.186,256,399.186z"></path>
			<path d="M332.566,190.507c4.521-1.588,6.899-6.543,5.311-11.064c-8.661-24.611-28.542-44.457-53.153-53.083     c-4.53-1.588-9.485,0.798-11.064,5.32c-1.579,4.521,0.798,9.476,5.311,11.056c19.708,6.908,35.597,22.78,42.531,42.47     c1.25,3.567,4.608,5.797,8.183,5.797C330.648,191.002,331.62,190.846,332.566,190.507z"></path>
			<path d="M316.746,208.271c-28.715,0-52.068,23.352-52.068,52.068v34.712c0,28.715,23.352,52.068,52.068,52.068     c4.799,0,8.678-3.888,8.678-8.678V216.949C325.424,212.159,321.545,208.271,316.746,208.271z M308.068,328.669     c-14.961-3.87-26.034-17.477-26.034-33.618v-34.712c0-16.141,11.073-29.748,26.034-33.618V328.669z"></path>
		</g>
	</g>
</g>
<g>
</g>
<g>
</g>
<g>
</g>
<g>
</g>
<g>
</g>
<g>
</g>
<g>
</g>
<g>
</g>
<g>
</g>
<g>
</g>
<g>
</g>
<g>
</g>
<g>
</g>
<g>
</g>
<g>
</g>
</svg>