<svg xmlns="http://www.w3.org/2000/svg" xmlns:xlink="http://www.w3.org/1999/xlink" x="0px" y="0px" viewBox="0 0 59 59" style="enable-background:new 0 0 59 59;" xml:space="preserve">
<g>
	<path d="M54.088,40.412C52.385,40.412,51,41.797,51,43.5v0.912h-8.264c-1.267-1.811-3.364-3-5.736-3   c-0.373,0-0.736,0.038-1.094,0.094c-1.439-1.606-1.846-4.168-2.228-6.664c-0.041-0.269-0.085-0.527-0.127-0.792l14.191-8.698   c1.212-0.743,2.009-2.092,2.32-3.852H55v-18c0-0.552-0.448-1-1-1s-1,0.448-1,1v16h-2.79c-0.05-1.791-0.54-3.624-1.335-4.922   l-0.448-0.731c-0.142-0.232-0.371-0.379-0.626-0.439c-0.051-1.628-0.499-3.311-1.211-4.471l-1.255-2.048   c-0.139-0.226-0.361-0.388-0.619-0.45c-0.259-0.063-0.53-0.019-0.756,0.12L0.477,33.209c-0.226,0.139-0.388,0.361-0.45,0.619   c-0.062,0.258-0.019,0.53,0.12,0.756l1.255,2.047c0.661,1.079,1.827,2.163,3.135,2.941l-0.494,0.846   c-0.278,0.477-0.117,1.089,0.36,1.368l0.864,0.504l-1.512,2.591c-0.278,0.477-0.117,1.089,0.36,1.368l5.182,3.024   c0.154,0.09,0.328,0.136,0.504,0.136c0.085,0,0.17-0.011,0.254-0.033c0.256-0.067,0.476-0.234,0.609-0.463l1.512-2.591l0.864,0.504   c0.157,0.092,0.331,0.136,0.503,0.136c0.274,0,0.545-0.112,0.74-0.327l3.187-3.499c0.815-0.02,1.599-0.212,2.299-0.641l4.195-2.571   c0.234,0.167,0.462,0.333,0.701,0.501c2.366,1.666,4.813,3.389,5.249,5.871c0.035,0.202,0.136,0.38,0.276,0.522   C30.07,47.332,30,47.863,30,48.412c0,3.86,3.14,7,7,7c2.373,0,4.47-1.189,5.736-3H51v1c0,1.703,1.385,3.088,3.088,3.088H59V40.412   H54.088z M3.107,35.587l-0.732-1.195L44.153,8.787l0.732,1.195c0.574,0.937,0.938,2.427,0.926,3.797   c-0.012,1.406-0.401,2.447-1.068,2.856l-21.23,13.012L10.325,37.73l0,0l-1.224,0.75c-0.157,0.097-0.343,0.158-0.545,0.196   c-0.125,0.022-0.269,0.016-0.409,0.017c-0.085,0.001-0.164,0.011-0.254,0.003c-0.167-0.015-0.348-0.056-0.53-0.099   c-0.082-0.019-0.159-0.03-0.243-0.054c-0.18-0.052-0.371-0.128-0.561-0.206c-0.162-0.066-0.318-0.117-0.487-0.201   C4.845,37.524,3.682,36.524,3.107,35.587z M9.441,47.043l-3.455-2.016l1.008-1.727l3.455,2.016L9.441,47.043z M13.349,44.692   l-1.027-0.599l-0.001-0.001l-3.189-1.861l-2.857-1.667l0.091-0.156c0.016,0.005,0.03,0.006,0.045,0.011   c0.607,0.191,1.193,0.298,1.739,0.298c0.066,0,0.128-0.009,0.193-0.012c0.013,0,0.025-0.002,0.038-0.002   c0.301-0.016,0.591-0.056,0.866-0.132c0.001,0,0.003-0.001,0.004-0.001c0.253-0.07,0.492-0.172,0.719-0.294   c0.023-0.012,0.05-0.017,0.073-0.03l1.233,0.262c0.031,0.028,0.065,0.051,0.096,0.078c0.116,0.102,0.241,0.197,0.363,0.295   c0.179,0.145,0.357,0.291,0.544,0.425c0.05,0.035,0.103,0.066,0.154,0.101c0.26,0.179,0.522,0.351,0.792,0.505   c0.037,0.021,0.075,0.038,0.112,0.058c0.283,0.157,0.567,0.305,0.855,0.433c0.11,0.049,0.223,0.086,0.335,0.131   c0.193,0.078,0.387,0.164,0.58,0.227L13.349,44.692z M18.724,40.792c-0.591,0.363-1.366,0.425-2.2,0.273   c-0.046-0.008-0.093-0.023-0.139-0.033c-0.203-0.043-0.409-0.098-0.616-0.164c-0.088-0.028-0.176-0.058-0.264-0.09   c-0.192-0.07-0.384-0.149-0.575-0.237c-0.066-0.03-0.132-0.055-0.198-0.087c-0.233-0.113-0.462-0.242-0.688-0.378   c-0.107-0.065-0.213-0.134-0.318-0.204c-0.129-0.085-0.255-0.173-0.38-0.264c-0.114-0.083-0.228-0.165-0.338-0.254   c-0.135-0.108-0.261-0.222-0.387-0.336c-0.058-0.052-0.12-0.101-0.176-0.155c-0.004-0.004-0.009-0.006-0.013-0.009   c-0.014-0.014-0.032-0.026-0.046-0.04L46.64,17.818c0.419-0.256,0.778-0.601,1.072-1.025c0.289,0.824,0.459,1.775,0.491,2.708H46   c-0.552,0-1,0.448-1,1s0.448,1,1,1h2.025c-0.239,1.002-0.695,1.76-1.326,2.147l-14.305,8.768c-0.168,0.007-0.335,0.055-0.482,0.147   l-8.502,5.264c-0.112,0.069-0.201,0.162-0.276,0.265L18.724,40.792z M31.355,44.278c-1.095-2.357-3.432-4.003-5.539-5.486   c0,0-0.001-0.001-0.001-0.001l5.891-3.611c0.362,2.37,0.768,4.994,2.15,6.982c-0.01,0.005-0.019,0.012-0.029,0.017   c-0.477,0.244-0.924,0.537-1.33,0.879c-0.027,0.023-0.051,0.048-0.078,0.071c-0.165,0.143-0.323,0.294-0.474,0.451   c-0.051,0.053-0.099,0.108-0.148,0.163c-0.126,0.14-0.246,0.285-0.361,0.436C31.411,44.214,31.381,44.244,31.355,44.278z    M32,48.412c0-0.914,0.265-1.761,0.695-2.499c0.106-0.181,0.221-0.356,0.347-0.521c0.081-0.105,0.164-0.208,0.253-0.306   c0.14-0.155,0.29-0.299,0.448-0.436c0.095-0.082,0.19-0.165,0.291-0.24c0.18-0.133,0.371-0.249,0.568-0.357   c0.096-0.053,0.19-0.11,0.289-0.157c0.227-0.106,0.466-0.188,0.71-0.259c0.447-0.132,0.91-0.224,1.399-0.224   c2.012,0,3.739,1.201,4.532,2.918c0.028,0.061,0.063,0.12,0.089,0.182c0.102,0.248,0.18,0.509,0.241,0.776   c0.019,0.082,0.035,0.164,0.05,0.247C41.962,47.82,42,48.111,42,48.412c0,0.3-0.038,0.591-0.089,0.877   c-0.015,0.083-0.031,0.165-0.05,0.247c-0.062,0.266-0.139,0.527-0.241,0.775c-0.026,0.063-0.061,0.122-0.089,0.183   c-0.793,1.717-2.52,2.918-4.532,2.918C34.243,53.412,32,51.168,32,48.412z M43.705,50.412c0.001-0.003,0.001-0.007,0.002-0.011   c0.084-0.284,0.147-0.576,0.195-0.874c0.011-0.065,0.021-0.13,0.03-0.195C43.972,49.03,44,48.724,44,48.412   s-0.028-0.618-0.068-0.92c-0.009-0.065-0.019-0.13-0.03-0.195c-0.048-0.297-0.11-0.59-0.195-0.874   c-0.001-0.003-0.001-0.007-0.002-0.011H51v4H43.705z M57,54.5h-2.912c-0.6,0-1.088-0.488-1.088-1.088v-1v-8V43.5   c0-0.6,0.488-1.088,1.088-1.088H57V54.5z"></path>
	<path d="M37,44.412c-2.206,0-4,1.794-4,4s1.794,4,4,4s4-1.794,4-4S39.205,44.412,37,44.412z M37,50.412c-1.103,0-2-0.897-2-2   s0.897-2,2-2s2,0.897,2,2S38.103,50.412,37,50.412z"></path>
</g>
<g>
</g>
<g>
</g>
<g>
</g>
<g>
</g>
<g>
</g>
<g>
</g>
<g>
</g>
<g>
</g>
<g>
</g>
<g>
</g>
<g>
</g>
<g>
</g>
<g>
</g>
<g>
</g>
<g>
</g>
</svg>